<?xml version="1.0" encoding="UTF-8" standalone="no"?>
<!-- Created with Inkscape (http://www.inkscape.org/) -->

<svg
   xmlns:dc="http://purl.org/dc/elements/1.1/"
   xmlns:cc="http://creativecommons.org/ns#"
   xmlns:rdf="http://www.w3.org/1999/02/22-rdf-syntax-ns#"
   xmlns:svg="http://www.w3.org/2000/svg"
   xmlns="http://www.w3.org/2000/svg"
   xmlns:xlink="http://www.w3.org/1999/xlink"
   xmlns:sodipodi="http://sodipodi.sourceforge.net/DTD/sodipodi-0.dtd"
   xmlns:inkscape="http://www.inkscape.org/namespaces/inkscape"
   version="1.0"
   width="725.29053"
   height="144.51711"
   viewBox="-0.941 -0.37 725.29053 144.51711"
   id="svg2"
   xml:space="preserve"
   inkscape:version="0.48.4 r9939"
   sodipodi:docname="ngc-logo-lunch-and-learn.svg"
   inkscape:export-filename="C:\Users\phillip\Documents\slides\ngc-slides-template\images\ngc-logo-lunch-and-learn-white.png"
   inkscape:export-xdpi="158.80473"
   inkscape:export-ydpi="158.80473"><metadata
   id="metadata4001"><rdf:RDF><cc:Work
       rdf:about=""><dc:format>image/svg+xml</dc:format><dc:type
         rdf:resource="http://purl.org/dc/dcmitype/StillImage" /></cc:Work></rdf:RDF></metadata><sodipodi:namedview
   pagecolor="#ffffff"
   bordercolor="#666666"
   borderopacity="1"
   objecttolerance="10"
   gridtolerance="10"
   guidetolerance="10"
   inkscape:pageopacity="0"
   inkscape:pageshadow="2"
   inkscape:window-width="1920"
   inkscape:window-height="1148"
   id="namedview3999"
   showgrid="false"
   fit-margin-top="0"
   fit-margin-left="0"
   fit-margin-right="0"
   fit-margin-bottom="0"
   inkscape:zoom="1.7410468"
   inkscape:cx="452.13858"
   inkscape:cy="-34.294994"
   inkscape:window-x="-8"
   inkscape:window-y="-8"
   inkscape:window-maximized="1"
   inkscape:current-layer="g6" />
	<defs
   id="defs4">
	<linearGradient
   gradientUnits="userSpaceOnUse"
   gradientTransform="scale(0.82270581,1.2155013)"
   id="linearGradient22823"
   inkscape:collect="always"
   spreadMethod="reflect"
   x1="249.15343"
   x2="267.1951"
   xlink:href="#linearGradient22824"
   y1="169.75696"
   y2="245.95084" /><linearGradient
   id="linearGradient22824"><stop
     id="stop22825"
     offset="0.0000000"
     style="stop-color:#000000;stop-opacity:0.0000000;" /><stop
     id="stop22826"
     offset="1.0000000"
     style="stop-color:#ffffff;stop-opacity:0.12169312;" /></linearGradient><linearGradient
   gradientUnits="userSpaceOnUse"
   gradientTransform="scale(1.3416408,0.745356)"
   id="linearGradient22860"
   inkscape:collect="always"
   x1="125.41058"
   x2="99.042046"
   xlink:href="#linearGradient1693"
   y1="184.63757"
   y2="135.88873" /><linearGradient
   id="linearGradient1693"><stop
     id="stop1694"
     offset="0.0000000"
     style="stop-color:#be9d74;stop-opacity:0.0000000;" /><stop
     id="stop1696"
     offset="1.0000000"
     style="stop-color:#000000;stop-opacity:0.60582012;" /></linearGradient></defs>
	<g
   id="g6"
   transform="translate(-0.94100101,-0.37)">
		<text
   xml:space="preserve"
   style="font-size:41.51100921999999800px;font-style:normal;font-weight:normal;line-height:125%;letter-spacing:0px;word-spacing:0px;fill:#96783e;fill-opacity:1;stroke:none;font-family:Sans"
   x="377.39929"
   y="119.95026"
   id="text4775-1"
   sodipodi:linespacing="125%"
   transform="scale(1.0377753,0.96359973)"><tspan
     sodipodi:role="line"
     id="tspan4777-7"
     x="377.39929"
     y="119.95026"
     style="font-style:normal;font-variant:normal;font-weight:normal;font-stretch:normal;fill:#96783e;fill-opacity:1;font-family:SketchFlow Print;-inkscape-font-specification:SketchFlow Print">Lunch &amp; Learn</tspan></text>
<path
   style="opacity:0.92920353;fill:#ba9a72;fill-opacity:1;stroke:#786651;stroke-width:1.86287606;stroke-linecap:butt;stroke-linejoin:miter;stroke-opacity:1"
   d="m 345.67925,124.32332 362.60072,-0.32486"
   id="path4798"
   inkscape:connector-curvature="0"
   sodipodi:nodetypes="cc" /><g
   id="g8"
   inkscape:export-filename="C:\Users\phillip\Documents\slides\ngc-slides-template\images\ngc-logo-white.png"
   inkscape:export-xdpi="159.1996"
   inkscape:export-ydpi="159.1996"
   style="fill:#2a7fff;fill-opacity:1">
			<polygon
   points="45.389,34.484 61.363,1.015 47.925,1.015 47.925,1.015 40.065,17.75 29.16,1.266 29.16,1.015 15.974,1.015 0,34.484 13.438,34.484 21.553,17.244 32.966,34.484 "
   style="fill:#2a7fff;fill-opacity:1;fill-rule:evenodd"
   id="polygon10" />
		</g>
		
		<g
   id="g16"
   inkscape:export-filename="C:\Users\phillip\Documents\slides\ngc-slides-template\images\ngc-logo-white.png"
   inkscape:export-xdpi="159.1996"
   inkscape:export-ydpi="159.1996"
   style="fill:#2a7fff;fill-opacity:1">
			<polygon
   points="667.38,34.484 653.941,34.484 653.941,34.484 669.66,0.76 682.594,0.76 694.006,17.75 701.868,0.76 715.052,0.76 699.332,34.484 686.904,34.484 675.496,17.244 "
   style="fill:#2a7fff;fill-opacity:1;fill-rule:evenodd"
   id="polygon18" />
		</g>
		<g
   id="g20"
   inkscape:export-filename="C:\Users\phillip\Documents\slides\ngc-slides-template\images\ngc-logo-white.png"
   inkscape:export-xdpi="159.1996"
   inkscape:export-ydpi="159.1996"
   style="fill:#2a7fff;fill-opacity:1">
			<path
   d="m 412.295,33.469 c -2.791,0.51 -4.311,0.765 -7.352,1.015 -3.297,0.255 -5.324,0.505 -7.862,0.505 -2.536,0 -5.071,-0.25 -7.1,-0.756 -2.028,-0.51 -3.804,-1.02 -5.323,-2.03 -2.536,-1.775 -4.059,-3.806 -4.819,-6.337 -0.507,-2.285 -0.253,-5.326 1.016,-8.367 1.268,-2.54 2.788,-4.821 4.818,-6.847 1.773,-2.03 4.309,-4.061 7.353,-5.581 2.788,-1.775 6.086,-3.041 9.129,-3.806 3.043,-0.756 6.59,-1.011 10.141,-1.011 2.535,0 4.82,0 7.102,0.505 2.535,0.505 4.562,1.27 6.847,2.03 l -3.551,8.112 c -1.775,-1.015 -3.551,-1.521 -5.326,-2.026 -2.026,-0.51 -3.802,-0.765 -5.831,-0.765 -3.551,0 -6.848,1.015 -9.889,2.54 -2.79,1.771 -5.07,4.052 -6.339,6.847 -1.015,2.786 -1.015,4.816 0.253,6.592 1.268,1.521 3.551,2.531 6.594,2.531 0.506,0 1.014,-0.255 1.519,-0.255 0.51,0 0.765,0 1.524,-0.25 l 1.775,-3.801 -5.073,0 3.549,-7.102 15.469,0 -8.624,18.257 0,0 z"
   style="fill:#2a7fff;fill-opacity:1;fill-rule:evenodd"
   id="path22"
   inkscape:connector-curvature="0" />
		</g>
		<g
   id="g24"
   inkscape:export-filename="C:\Users\phillip\Documents\slides\ngc-slides-template\images\ngc-logo-white.png"
   inkscape:export-xdpi="159.1996"
   inkscape:export-ydpi="159.1996"
   style="fill:#2a7fff;fill-opacity:1">
			<g
   id="g26"
   style="fill:#2a7fff;fill-opacity:1">
				<path
   d="m 334.197,6.847 3.043,0.255 c 2.283,0 3.803,0.255 4.564,1.011 0.507,0.765 0.507,1.775 -0.253,3.551 -0.76,1.521 -1.775,2.536 -3.296,3.296 -1.268,0.76 -3.296,1.27 -5.579,1.27 l -2.535,0 4.056,-9.383 0,0 z m -12.677,27.637 5.579,-11.914 4.564,0 c 6.086,0 10.905,-1.02 14.708,-2.795 3.802,-2.026 6.592,-4.816 8.367,-8.367 1.773,-3.551 1.521,-6.082 -0.762,-7.857 -2.281,-1.775 -6.337,-2.791 -12.17,-2.791 l -18.51,0 -15.722,33.724 13.946,0 0,0 z"
   style="fill:#2a7fff;fill-opacity:1;fill-rule:evenodd"
   id="path28"
   inkscape:connector-curvature="0" />
			</g>
		</g>
		<g
   id="g30"
   inkscape:export-filename="C:\Users\phillip\Documents\slides\ngc-slides-template\images\ngc-logo-white.png"
   inkscape:export-xdpi="159.1996"
   inkscape:export-ydpi="159.1996"
   style="fill:#2a7fff;fill-opacity:1">
			<polygon
   points="208.683,22.061 193.724,22.061 187.893,34.484 173.439,34.484 173.439,34.484 189.668,0.76 204.119,0.76 198.288,13.184 212.994,13.184 219.081,0.76 233.534,0.76 217.053,34.484 202.599,34.484 "
   style="fill:#2a7fff;fill-opacity:1;fill-rule:evenodd"
   id="polygon32" />
		</g>
		<g
   id="g34"
   inkscape:export-filename="C:\Users\phillip\Documents\slides\ngc-slides-template\images\ngc-logo-white.png"
   inkscape:export-xdpi="159.1996"
   inkscape:export-ydpi="159.1996"
   style="fill:#2a7fff;fill-opacity:1">
			<polygon
   points="145.294,34.484 157.463,9.633 145.039,9.633 149.351,0.76 187.893,0.76 183.582,9.633 171.156,9.633 158.73,34.484 145.294,34.484 "
   style="fill:#2a7fff;fill-opacity:1;fill-rule:evenodd"
   id="polygon36" />
		</g>
		<g
   id="g38"
   inkscape:export-filename="C:\Users\phillip\Documents\slides\ngc-slides-template\images\ngc-logo-white.png"
   inkscape:export-xdpi="159.1996"
   inkscape:export-ydpi="159.1996"
   style="fill:#2a7fff;fill-opacity:1">
			<g
   id="g40"
   style="fill:#2a7fff;fill-opacity:1">
				<path
   d="m 74.804,12.173 c 2.281,-1.521 4.563,-2.03 6.845,-2.03 2.535,0 4.056,0.51 5.071,2.03 1.013,1.521 1.013,3.296 0,5.326 -1.016,2.276 -2.536,4.052 -4.564,5.572 -2.283,1.27 -4.564,2.03 -6.847,2.03 -2.536,0 -4.056,-0.76 -5.071,-2.03 -1.015,-1.521 -1.015,-3.296 0,-5.572 1.015,-2.03 2.535,-3.806 4.566,-5.326 l 0,0 z M 54.771,24.596 c 0.252,2.026 1.013,3.801 2.535,5.577 1.268,1.521 3.296,2.791 5.579,3.806 2.281,0.76 5.069,1.266 8.112,1.266 3.043,0 6.086,-0.505 9.13,-1.266 3.041,-1.015 6.084,-2.285 8.875,-3.806 2.789,-1.775 5.324,-3.551 7.099,-5.577 2.028,-2.026 3.549,-4.566 4.564,-7.097 1.268,-2.54 1.521,-4.821 1.521,-6.847 C 101.934,8.622 101.173,6.591 99.65,5.071 98.382,3.296 96.354,2.285 94.073,1.265 91.791,0.51 89.002,0 85.959,0 82.916,0 79.62,0.51 76.832,1.266 c -3.046,1.02 -6.087,2.03 -8.877,3.806 -2.789,1.775 -5.324,3.551 -7.353,5.581 -1.775,2.026 -3.296,4.562 -4.563,6.847 -1.015,2.53 -1.522,4.815 -1.268,7.096 l 0,0 z"
   style="fill:#2a7fff;fill-opacity:1;fill-rule:evenodd"
   id="path42"
   inkscape:connector-curvature="0" />
			</g>
		</g>
		<g
   id="g44"
   inkscape:export-filename="C:\Users\phillip\Documents\slides\ngc-slides-template\images\ngc-logo-white.png"
   inkscape:export-xdpi="159.1996"
   inkscape:export-ydpi="159.1996"
   style="fill:#2a7fff;fill-opacity:1">
			<g
   id="g46"
   style="fill:#2a7fff;fill-opacity:1">
				<path
   d="m 287.543,12.173 c 2.028,-1.521 4.311,-2.03 6.847,-2.03 2.281,0 4.056,0.51 4.816,2.03 1.015,1.521 1.015,3.296 0,5.326 -0.76,2.276 -2.283,4.052 -4.563,5.572 -2.028,1.27 -4.312,2.03 -6.847,2.03 -2.283,0 -4.057,-0.76 -5.071,-2.03 -0.761,-1.521 -0.761,-3.296 0,-5.572 1.014,-2.03 2.535,-3.806 4.818,-5.326 l 0,0 z m -20.032,12.423 c 0,2.026 1.015,3.801 2.283,5.577 1.521,1.521 3.296,2.791 5.579,3.806 2.281,0.76 5.071,1.266 8.112,1.266 3.298,0 6.339,-0.505 9.383,-1.266 3.043,-1.015 5.833,-2.285 8.62,-3.806 3.045,-1.775 5.326,-3.551 7.354,-5.577 1.775,-2.026 3.296,-4.566 4.564,-7.097 1.015,-2.54 1.523,-4.821 1.27,-6.847 -0.255,-2.03 -1.015,-4.061 -2.283,-5.581 C 310.871,3.296 309.097,2.285 306.814,1.265 304.532,0.51 301.742,0 298.446,0 c -3.043,0 -6.086,0.51 -9.127,1.266 -3.043,1.02 -5.834,2.03 -8.622,3.806 -3.043,1.775 -5.324,3.551 -7.352,5.581 -2.03,2.026 -3.551,4.562 -4.566,6.847 -1.016,2.53 -1.521,4.815 -1.268,7.096 l 0,0 z"
   style="fill:#2a7fff;fill-opacity:1;fill-rule:evenodd"
   id="path48"
   inkscape:connector-curvature="0" />
			</g>
		</g>
		<g
   id="g50"
   inkscape:export-filename="C:\Users\phillip\Documents\slides\ngc-slides-template\images\ngc-logo-white.png"
   inkscape:export-xdpi="159.1996"
   inkscape:export-ydpi="159.1996"
   style="fill:#2a7fff;fill-opacity:1">
			<path
   d="m 472.645,0.76 13.944,0 -8.112,18.004 c -1.27,2.536 -1.521,4.307 -0.76,5.577 0.76,1.015 2.28,1.775 4.816,1.775 2.285,0 4.565,-0.76 6.341,-1.775 1.775,-1.27 3.041,-3.041 4.307,-5.577 l 8.116,-18.004 14.199,0 -8.622,18.51 c -2.28,5.326 -6.082,9.127 -10.903,11.918 -4.816,2.536 -10.647,4.056 -17.749,4.056 -7.097,0 -11.663,-1.521 -14.198,-4.056 -2.281,-2.791 -2.281,-6.592 0.254,-11.918 l 8.367,-18.51 0,0 z"
   style="fill:#2a7fff;fill-opacity:1;fill-rule:evenodd"
   id="path52"
   inkscape:connector-curvature="0" />
		</g>
		<g
   id="g54"
   inkscape:export-filename="C:\Users\phillip\Documents\slides\ngc-slides-template\images\ngc-logo-white.png"
   inkscape:export-xdpi="159.1996"
   inkscape:export-ydpi="159.1996"
   style="fill:#2a7fff;fill-opacity:1">
			<g
   id="g56"
   style="fill:#2a7fff;fill-opacity:1">
				<path
   d="m 640.252,9.888 -0.254,12.428 -11.413,0 11.667,-12.428 0,0 z m -23.33,24.596 5.576,-5.832 17.5,0 0,5.832 13.438,0 -1.776,-33.724 -14.198,0 -34.233,33.724 13.693,0 0,0 z"
   style="fill:#2a7fff;fill-opacity:1;fill-rule:evenodd"
   id="path58"
   inkscape:connector-curvature="0" />
			</g>
		</g>
		<g
   id="g60"
   inkscape:export-filename="C:\Users\phillip\Documents\slides\ngc-slides-template\images\ngc-logo-white.png"
   inkscape:export-xdpi="159.1996"
   inkscape:export-ydpi="159.1996"
   style="fill:#2a7fff;fill-opacity:1">
			<g
   id="g62"
   style="fill:#2a7fff;fill-opacity:1">
				<path
   d="M 143.011,3.041 C 140.728,1.52 136.672,0.76 130.333,0.76 l -19.018,0 -15.973,33.724 14.198,0 6.847,-14.199 3.804,0 c 3.804,0.255 5.071,4.562 5.071,11.408 0,0.51 -0.255,1.775 -0.255,2.791 l 13.44,0 -0.507,-10.393 c 0,-1.27 -0.507,-3.045 -1.015,-3.806 -0.253,-1.015 -1.013,-1.266 -1.773,-1.775 2.534,-0.76 3.802,-1.775 5.324,-3.041 1.521,-1.521 2.788,-3.045 3.549,-4.816 1.522,-3.297 1.269,-5.837 -1.014,-7.612 l 0,0 z m -11.918,8.112 c -0.505,1.27 -2.028,2.285 -3.296,3.045 -1.268,0.505 -4.311,1.27 -6.847,1.27 l -2.789,0 4.312,-9.382 2.788,0 c 2.281,0 4.309,0.76 5.071,1.27 0.761,0.756 1.269,2.026 0.761,3.797 l 0,0 z"
   style="fill:#2a7fff;fill-opacity:1;fill-rule:evenodd"
   id="path64"
   inkscape:connector-curvature="0" />
			</g>
		</g>
		<g
   id="g66"
   inkscape:export-filename="C:\Users\phillip\Documents\slides\ngc-slides-template\images\ngc-logo-white.png"
   inkscape:export-xdpi="159.1996"
   inkscape:export-ydpi="159.1996"
   style="fill:#2a7fff;fill-opacity:1">
			<g
   id="g68"
   style="fill:#2a7fff;fill-opacity:1">
				<path
   d="M 269.286,3.041 C 267.003,1.52 262.694,0.76 256.352,0.76 l -18.762,0 -15.974,33.724 14.199,0 6.592,-14.199 4.058,0 c 3.551,0.255 4.819,4.562 4.819,11.408 0,0.51 0,1.775 0,2.791 l 13.438,0 -0.507,-10.393 c 0,-1.27 -0.508,-3.045 -1.016,-3.806 -0.505,-1.015 -1.268,-1.266 -2.028,-1.775 2.536,-0.76 3.803,-1.775 5.326,-3.041 1.521,-1.521 2.789,-3.045 3.548,-4.816 1.776,-3.297 1.524,-5.837 -0.759,-7.612 l 0,0 z m -12.171,8.112 c -0.255,1.27 -1.775,2.285 -3.298,3.045 -1.266,0.505 -4.309,1.27 -6.592,1.27 l -2.789,0 4.311,-9.382 2.788,0 c 2.281,0 4.312,0.76 5.071,1.27 0.762,0.756 1.015,2.026 0.509,3.797 l 0,0 z"
   style="fill:#2a7fff;fill-opacity:1;fill-rule:evenodd"
   id="path70"
   inkscape:connector-curvature="0" />
			</g>
		</g>
		<g
   id="g72"
   inkscape:export-filename="C:\Users\phillip\Documents\slides\ngc-slides-template\images\ngc-logo-white.png"
   inkscape:export-xdpi="159.1996"
   inkscape:export-ydpi="159.1996"
   style="fill:#2a7fff;fill-opacity:1">
			<g
   id="g74"
   style="fill:#2a7fff;fill-opacity:1">
				<path
   d="M 463.768,3.041 C 461.743,1.52 457.432,0.76 451.09,0.76 l -18.76,0 -16.229,33.724 14.198,0 6.848,-14.199 c 0,0 3.801,0 4.056,0 3.551,0.255 4.816,4.562 4.816,11.408 0,0.51 0,1.775 -0.251,2.791 l 13.439,0 -0.51,-10.393 c 0,-1.27 -0.506,-3.045 -0.761,-3.806 -0.505,-1.015 -1.266,-1.266 -2.026,-1.775 2.531,-0.76 3.802,-1.775 5.322,-3.041 1.525,-1.521 2.791,-3.045 3.551,-4.816 1.521,-3.297 1.27,-5.837 -1.015,-7.612 l 0,0 z m -11.918,8.112 c -0.25,1.27 -2.025,2.285 -3.295,3.045 -1.266,0.505 -4.312,1.27 -6.843,1.27 l -2.54,0 4.311,-9.382 2.536,0 c 2.536,0 4.312,0.76 5.071,1.27 0.76,0.756 1.269,2.026 0.76,3.797 l 0,0 z"
   style="fill:#2a7fff;fill-opacity:1;fill-rule:evenodd"
   id="path76"
   inkscape:connector-curvature="0" />
			</g>
		</g>
		<g
   id="g78"
   inkscape:export-filename="C:\Users\phillip\Documents\slides\ngc-slides-template\images\ngc-logo-white.png"
   inkscape:export-xdpi="159.1996"
   inkscape:export-ydpi="159.1996"
   style="fill:#2a7fff;fill-opacity:1">
			<polygon
   points="529.189,28.907 525.133,15.974 516.256,34.484 503.072,34.484 503.072,34.484 519.047,0.76 532.23,0.76 536.541,13.948 553.025,0.76 566.209,0.76 550.234,34.484 536.797,34.484 545.924,15.469 "
   style="fill:#2a7fff;fill-opacity:1;fill-rule:evenodd"
   id="polygon80" />
		</g>
		<g
   id="g82"
   inkscape:export-filename="C:\Users\phillip\Documents\slides\ngc-slides-template\images\ngc-logo-white.png"
   inkscape:export-xdpi="159.1996"
   inkscape:export-ydpi="159.1996"
   style="fill:#2a7fff;fill-opacity:1">
			<polygon
   points="580.408,28.907 576.097,15.974 567.475,34.484 554.291,34.484 554.291,34.484 570.015,0.76 583.198,0.76 587.51,13.948 603.988,0.76 617.177,0.76 601.453,34.484 588.015,34.484 596.892,15.469 "
   style="fill:#2a7fff;fill-opacity:1;fill-rule:evenodd"
   id="polygon84" />
		</g>
		<path
   d="M 72.773,124.246 C 203.106,32.963 595.367,46.151 724.433,45.387"
   style="fill:none;stroke:#2a7fff;stroke-width:1.71500003;stroke-miterlimit:2.61310005"
   id="path86"
   inkscape:export-filename="C:\Users\phillip\Documents\slides\ngc-slides-template\images\ngc-logo-lunch-and-learn-white.png"
   inkscape:export-xdpi="159.1996"
   inkscape:export-ydpi="159.1996"
   inkscape:connector-curvature="0" />
	<g
   transform="matrix(0.23808349,0,0,0.24157966,319.36133,61.381278)"
   id="g4627"><path
     inkscape:connector-curvature="0"
     style="fill:#be9d74;fill-opacity:1;fill-rule:evenodd;stroke:none"
     id="path20958"
     d="m 125.56757,57.222845 -18.23886,6.313454 -10.52242,16.835876 -10.52243,30.164275 -2.80598,6.31346 0.7015,4.91046 2.80598,115.74665 0,8.41794 0.70149,4.20896 1.40299,15.43289 2.80598,10.52242 0,11.22392 70.85098,56.11959 117.85113,-79.97041 4.20897,-65.94052 -2.10449,-28.76129 -5.61195,-27.3583 -28.0598,-73.656952 10.52242,-4.910464 1.40299,-10.522422 11.92542,-4.910464 -3.50748,-13.328402 -2.10448,-5.611958 -10.52242,-4.910464 -131.17954,33.671751 z" /><path
     inkscape:connector-curvature="0"
     style="fill:url(#linearGradient22823);fill-opacity:1;fill-rule:evenodd;stroke:none"
     sodipodi:nodetypes="cccccccccccccccccc"
     id="path21580"
     d="m 99.612258,71.252733 -6.31345,9.82093 -0.7015,8.41794 7.01495,26.656797 30.865772,67.3435 21.04486,54.01511 2.10448,30.16427 5.61196,74.35845 117.85113,-79.97041 2.10448,-36.47773 0,-56.11958 -5.61196,-28.0598 -28.76128,-75.059932 -135.38851,42.089682 -4.91046,-5.61197 -2.10449,-10.522407 -1.40299,-16.13438 -1.402992,-4.91047 z" /><path
     inkscape:connector-curvature="0"
     style="fill:#000000;fill-opacity:0.521875;fill-rule:evenodd;stroke:none"
     id="path22828"
     d="m 126.97056,99.312535 -5.61196,-4.208969 -4.91046,-5.611959 -2.10448,0.701495 0,9.119433 0,5.611955 -1.40299,1.40299 -2.80598,-9.11943 -1.40299,-9.119432 -1.40299,-11.223918 -0.7015,-7.014948 0.7015,-4.208969 2.80598,-2.104484 4.20897,3.507474 4.20896,10.522422 4.20897,8.417938 4.20897,13.328402 z" /><path
     inkscape:connector-curvature="0"
     style="fill:#000000;fill-opacity:0.40625;fill-rule:evenodd;stroke:none"
     sodipodi:nodetypes="ccccccccccccccccccccc"
     id="path22829"
     d="m 106.62721,65.640783 -8.417935,18.238866 0.701495,14.029896 50.50763,123.463085 4.91046,17.53738 8.41794,103.82123 -70.149479,-54.7166 -2.10449,-20.34335 -0.70149,-5.61196 2.10448,-4.20896 -5.61196,-10.52243 2.80598,-6.31345 -2.10448,-8.41794 -0.7015,-20.34335 -0.701491,-20.34334 -0.701499,-68.7465 -2.10448,-5.61196 2.80598,-7.01495 9.119434,-27.358296 9.119425,-7.716443 2.80598,-9.820928 z" /><path
     inkscape:connector-curvature="0"
     style="fill:#000000;fill-opacity:0.36875;fill-rule:evenodd;stroke:none"
     sodipodi:nodetypes="cccccccccccccccc"
     id="path22830"
     d="m 126.97056,97.909546 -5.61196,-4.910464 -3.50747,-3.507474 -2.10448,-0.701495 -1.40299,0 0,6.313453 -0.7015,5.611964 0.7015,4.91046 1.40299,2.10448 79.97041,-23.149326 63.13453,-21.746339 2.10448,-11.223917 -23.14933,8.417937 -35.77624,13.328402 -51.91061,17.53737 -23.14933,7.014949 z" /><path
     inkscape:connector-curvature="0"
     style="fill:#000000;fill-opacity:0.32499994;fill-rule:evenodd;stroke:none"
     id="path22834"
     d="m 283.40391,220.67114 -3.50748,42.08969 -39.9852,27.3583 17.53737,-14.73139 c 0,0 13.3284,-5.61196 16.13438,-14.0299 2.80598,-8.41794 9.82093,-40.6867 9.82093,-40.6867 z" /><path
     inkscape:connector-curvature="0"
     style="fill:#000000;fill-opacity:0.196875;fill-rule:evenodd;stroke:none"
     id="path22837"
     d="m 114.34366,264.86531 7.71644,11.92541 17.53737,16.83588 6.31345,19.64186 1.40299,10.52242 -16.13438,-7.71645 -9.11943,-8.41793 21.74634,21.04484 16.13438,14.0299 -5.61196,-17.53737 -13.3284,-35.07474 -11.22392,-12.62691 -9.82093,-7.71644 -5.61195,-4.91047 z" /><path
     inkscape:connector-curvature="0"
     style="fill:#000000;fill-opacity:0.184375;fill-rule:evenodd;stroke:none"
     id="path22839"
     d="m 115.74665,258.55186 13.3284,-28.76129 3.50747,-11.22392 0,-38.58221 -2.80598,32.97026 -13.3284,-12.62691 -1.40299,-4.91046 3.50748,16.13438 -4.91047,7.71644 2.10449,23.85082 -3.50748,21.04485 3.50748,-5.61196 z" /><path
     inkscape:connector-curvature="0"
     style="fill:#000000;fill-opacity:0.165625;fill-rule:evenodd;stroke:none"
     sodipodi:nodetypes="ccccccccccccc"
     id="path22840"
     d="m 98.209275,83.879649 -8.417938,23.149331 -4.910463,9.11943 1.402989,3.50747 7.716443,3.50748 0,9.82092 7.716444,16.13439 16.13438,32.26876 9.11943,25.25381 4.20897,-27.3583 -17.53737,-44.19417 -14.029895,-36.47773 -1.40299,-14.731391 z" /><path
     inkscape:connector-curvature="0"
     style="fill:#000000;fill-opacity:0.4375;fill-rule:evenodd;stroke:none"
     id="path22847"
     d="m 133.98551,180.68593 16.83588,44.89567 1.40299,7.71645 -4.20897,-2.10449 -14.0299,-50.50763 z" /><path
     inkscape:connector-curvature="0"
     style="fill:#000000;fill-opacity:0.5;fill-rule:evenodd;stroke:none"
     id="path22848"
     d="m 153.62737,241.71597 4.91046,49.80614 3.50747,52.61211 -16.83587,-42.79119 12.62691,23.85083 -4.20897,-83.47789 z" /><path
     inkscape:connector-curvature="0"
     style="fill:#ffffff;fill-opacity:0.209375;fill-rule:evenodd;stroke:none"
     id="path22849"
     d="m 152.92587,232.59655 1.40299,7.71644 0,9.11944 3.50748,-9.82093 44.19417,-21.04485 -42.08969,16.13439 -7.01495,-2.10449 z" /><path
     inkscape:connector-curvature="0"
     style="fill:#ffffff;fill-opacity:0.209375;fill-rule:evenodd;stroke:none"
     id="path22851"
     d="m 282.00092,165.95454 1.40299,12.62691 -70.85098,35.07474 68.045,-29.46278 2.80598,5.61196 -1.40299,-23.85083 z" /><path
     inkscape:connector-curvature="0"
     style="fill:#000300;fill-opacity:0.171875;fill-rule:evenodd;stroke:none"
     id="path22852"
     d="m 155.73185,243.82047 3.50747,-4.20897 68.7465,-29.46278 -30.16428,16.13438 -28.76129,11.92541 -13.3284,5.61196 z" /><path
     inkscape:connector-curvature="0"
     style="fill:#000300;fill-opacity:0.165625;fill-rule:evenodd;stroke:none"
     id="path22853"
     d="m 229.38881,207.34274 51.91061,-22.44784 2.10449,13.3284 -2.10449,-6.31345 -51.91061,15.43289 z" /><path
     inkscape:connector-curvature="0"
     style="fill:#000300;fill-opacity:0.196875;fill-rule:evenodd;stroke:none"
     id="path22854"
     d="m 131.17954,217.86516 -1.40299,14.0299 -18.23887,33.67175 9.11943,-27.3583 9.11944,-23.85082 1.40299,3.50747 z" /><path
     inkscape:connector-curvature="0"
     style="fill:#000300;fill-opacity:0.325;fill-rule:evenodd;stroke:none"
     id="path22855"
     d="m 124.86608,163.14856 2.80598,14.0299 -1.40299,24.55232 5.61196,-21.04485 -7.01495,-17.53737 z" /><path
     inkscape:connector-curvature="0"
     style="fill:#000300;fill-opacity:0.325;fill-rule:evenodd;stroke:none"
     id="path22856"
     d="m 116.44814,269.77578 11.92541,16.83587 11.22392,6.31346 -23.14933,-23.14933 z" /><path
     inkscape:connector-curvature="0"
     style="fill:#000300;fill-opacity:0.515625;fill-rule:evenodd;stroke:none"
     id="path22857"
     d="m 87.686852,250.83542 1.40299,19.64185 2.104485,18.23887 32.970253,23.14933 -28.761284,-26.65681 -1.40299,-16.13438 -6.313454,-18.23886 z" /><path
     inkscape:connector-curvature="0"
     style="fill:#000000;fill-opacity:0.503125;fill-rule:evenodd;stroke:none"
     id="path22858"
     d="m 105.22422,67.043773 -5.611955,7.716443 -1.40299,10.522422 1.40299,14.731392 0.701495,-16.134381 2.10448,-4.910464 0.7015,12.626907 6.31345,14.731388 4.91047,2.10449 135.3885,-41.388197 -1.40299,-2.104484 -131.88103,39.283711 -3.50747,-1.40299 -3.50748,-14.029897 -4.20897,-21.74634 z" /><path
     inkscape:connector-curvature="0"
     style="fill:url(#linearGradient22860);fill-opacity:1;fill-rule:evenodd;stroke:none"
     sodipodi:nodetypes="cccccccccccccc"
     id="path22863"
     d="m 103.82123,76.163205 -3.50747,4.910465 -1.40299,10.522422 -0.701495,7.716443 6.313455,11.925415 18.23886,44.19417 139.59747,-51.91061 -14.73139,-39.283716 -83.47788,25.955308 -44.89567,14.029898 -7.01495,0.7015 -4.20897,-2.80598 -3.50748,-14.731397 -0.70149,-11.223918 z" /><path
     inkscape:connector-curvature="0"
     style="fill:#000000;fill-opacity:0.2875;fill-rule:evenodd;stroke:none"
     id="path22864"
     d="m 251.83664,78.26769 20.34335,50.50763 9.82093,38.58221 0.70149,14.0299 -8.41793,-35.07474 -22.44784,-56.821083 -11.22392,-18.94036 -9.82092,0 16.13438,-4.910464 4.91046,12.626907 z" /><path
     inkscape:connector-curvature="0"
     style="fill:#000000;fill-opacity:0.53125;fill-rule:evenodd;stroke:none"
     id="path22832"
     d="m 261.65757,25.655578 -9.11943,1.40299 -54.7166,14.731391 -14.73139,3.507474 -58.92557,16.835876 -11.22391,4.208969 -2.10449,-2.805979 28.05979,-10.522423 65.94052,-15.432886 51.91062,-14.029896 4.91046,2.104484 z" /><path
     inkscape:connector-curvature="0"
     style="fill:#000000;fill-opacity:0.553125;fill-rule:evenodd;stroke:none"
     id="path22833"
     d="m 225.17984,58.625835 -14.0299,7.716443 -35.07474,14.731391 27.3583,-8.417938 18.94036,-7.716443 2.80598,-6.313453 z" /><path
     inkscape:connector-curvature="0"
     style="fill:#000000;fill-opacity:0.546875;fill-rule:evenodd;stroke:none"
     id="path22831"
     d="m 267.26953,29.163052 -0.7015,4.910464 -21.04484,11.925412 -13.3284,10.522422 14.73139,-8.417937 23.14933,-11.223918 -2.80598,-7.716443 z" /><path
     inkscape:connector-curvature="0"
     style="fill:#000000;fill-opacity:0.3375;fill-rule:evenodd;stroke:none"
     id="path22865"
     d="m 103.82124,113.34243 17.53737,45.59716 9.11943,20.34335 -15.43288,-47.00015 -6.31346,-19.64186 6.31346,-4.20897 -7.01495,-2.80598 -6.31346,-21.044837 0,-6.313453 -3.507475,14.731391 0.701495,9.119429 4.91047,11.22392 z" /></g><text
   xml:space="preserve"
   style="font-size:41.51100922px;font-style:normal;font-weight:normal;line-height:125%;letter-spacing:0px;word-spacing:0px;fill:#bd9c5e;fill-opacity:1;stroke:none;font-family:Sans"
   x="376.42337"
   y="119.60419"
   id="text4775"
   sodipodi:linespacing="125%"
   transform="scale(1.0377753,0.96359974)"><tspan
     sodipodi:role="line"
     id="tspan4777"
     x="376.42337"
     y="119.60419"
     style="font-style:normal;font-variant:normal;font-weight:normal;font-stretch:normal;fill:#bd9c5e;fill-opacity:1;font-family:SketchFlow Print;-inkscape-font-specification:SketchFlow Print">Lunch &amp; Learn</tspan></text>
</g>
</svg>