<?xml version="1.0" encoding="UTF-8" standalone="no"?>
<!-- Created with Inkscape (http://www.inkscape.org/) -->
<svg
   xmlns:svg="http://www.w3.org/2000/svg"
   xmlns="http://www.w3.org/2000/svg"
   version="1.0"
   width="726"
   height="126"
   viewBox="-0.941 -0.37 726 126"
   id="svg2"
   xml:space="preserve">
	<defs
   id="defs4">
	</defs>
	<g
   id="g6">
		<g
   id="g8">
			<polygon
   points="47.925,1.015 40.065,17.75 29.16,1.266 29.16,1.015 15.974,1.015 0,34.484 13.438,34.484 21.553,17.244 32.966,34.484 45.389,34.484 61.363,1.015 47.925,1.015 "
   style="fill:#0534b2;fill-rule:evenodd"
   id="polygon10" />
		</g>
		<g
   id="g12">
			<polygon
   points="0.255,34.484 15.974,0.76 28.907,0.76 40.065,17.75 47.925,0.76 61.363,0.76 45.389,34.484 32.966,34.484 21.553,17.244 13.438,34.484 0.255,34.484 "
   style="fill:#0534b2;fill-rule:evenodd"
   id="polygon14" />
		</g>
		<g
   id="g16">
			<polygon
   points="653.941,34.484 669.66,0.76 682.594,0.76 694.006,17.75 701.868,0.76 715.052,0.76 699.332,34.484 686.904,34.484 675.496,17.244 667.38,34.484 653.941,34.484 "
   style="fill:#0534b2;fill-rule:evenodd"
   id="polygon18" />
		</g>
		<g
   id="g20">
			<path
   d="M 412.295,33.469 C 409.504,33.979 407.984,34.234 404.943,34.484 C 401.646,34.739 399.619,34.989 397.081,34.989 C 394.545,34.989 392.01,34.739 389.981,34.233 C 387.953,33.723 386.177,33.213 384.658,32.203 C 382.122,30.428 380.599,28.397 379.839,25.866 C 379.332,23.581 379.586,20.54 380.855,17.499 C 382.123,14.959 383.643,12.678 385.673,10.652 C 387.446,8.622 389.982,6.591 393.026,5.071 C 395.814,3.296 399.112,2.03 402.155,1.265 C 405.198,0.509 408.745,0.254 412.296,0.254 C 414.831,0.254 417.116,0.254 419.398,0.759 C 421.933,1.264 423.96,2.029 426.245,2.789 L 422.694,10.901 C 420.919,9.886 419.143,9.38 417.368,8.875 C 415.342,8.365 413.566,8.11 411.537,8.11 C 407.986,8.11 404.689,9.125 401.648,10.65 C 398.858,12.421 396.578,14.702 395.309,17.497 C 394.294,20.283 394.294,22.313 395.562,24.089 C 396.83,25.61 399.113,26.62 402.156,26.62 C 402.662,26.62 403.17,26.365 403.675,26.365 C 404.185,26.365 404.44,26.365 405.199,26.115 L 406.974,22.314 L 401.901,22.314 L 405.45,15.212 L 420.919,15.212 L 412.295,33.469 L 412.295,33.469 z "
   style="fill:#0534b2;fill-rule:evenodd"
   id="path22" />
		</g>
		<g
   id="g24">
			<g
   id="g26">
				<path
   d="M 334.197,6.847 L 337.24,7.102 C 339.523,7.102 341.043,7.357 341.804,8.113 C 342.311,8.878 342.311,9.888 341.551,11.664 C 340.791,13.185 339.776,14.2 338.255,14.96 C 336.987,15.72 334.959,16.23 332.676,16.23 L 330.141,16.23 L 334.197,6.847 L 334.197,6.847 z M 321.52,34.484 L 327.099,22.57 L 331.663,22.57 C 337.749,22.57 342.568,21.55 346.371,19.775 C 350.173,17.749 352.963,14.959 354.738,11.408 C 356.511,7.857 356.259,5.326 353.976,3.551 C 351.695,1.776 347.639,0.76 341.806,0.76 L 323.296,0.76 L 307.574,34.484 L 321.52,34.484 L 321.52,34.484 z "
   style="fill:#0534b2;fill-rule:evenodd"
   id="path28" />
			</g>
		</g>
		<g
   id="g30">
			<polygon
   points="173.439,34.484 189.668,0.76 204.119,0.76 198.288,13.184 212.994,13.184 219.081,0.76 233.534,0.76 217.053,34.484 202.599,34.484 208.683,22.061 193.724,22.061 187.893,34.484 173.439,34.484 "
   style="fill:#0534b2;fill-rule:evenodd"
   id="polygon32" />
		</g>
		<g
   id="g34">
			<polygon
   points="145.294,34.484 157.463,9.633 145.039,9.633 149.351,0.76 187.893,0.76 183.582,9.633 171.156,9.633 158.73,34.484 145.294,34.484 "
   style="fill:#0534b2;fill-rule:evenodd"
   id="polygon36" />
		</g>
		<g
   id="g38">
			<g
   id="g40">
				<path
   d="M 74.804,12.173 C 77.085,10.652 79.367,10.143 81.649,10.143 C 84.184,10.143 85.705,10.653 86.72,12.173 C 87.733,13.694 87.733,15.469 86.72,17.499 C 85.704,19.775 84.184,21.551 82.156,23.071 C 79.873,24.341 77.592,25.101 75.309,25.101 C 72.773,25.101 71.253,24.341 70.238,23.071 C 69.223,21.55 69.223,19.775 70.238,17.499 C 71.253,15.469 72.773,13.693 74.804,12.173 L 74.804,12.173 z M 54.771,24.596 C 55.023,26.622 55.784,28.397 57.306,30.173 C 58.574,31.694 60.602,32.964 62.885,33.979 C 65.166,34.739 67.954,35.245 70.997,35.245 C 74.04,35.245 77.083,34.74 80.127,33.979 C 83.168,32.964 86.211,31.694 89.002,30.173 C 91.791,28.398 94.326,26.622 96.101,24.596 C 98.129,22.57 99.65,20.03 100.665,17.499 C 101.933,14.959 102.186,12.678 102.186,10.652 C 101.934,8.622 101.173,6.591 99.65,5.071 C 98.382,3.296 96.354,2.285 94.073,1.265 C 91.791,0.51 89.002,0 85.959,0 C 82.916,0 79.62,0.51 76.832,1.266 C 73.786,2.286 70.745,3.296 67.955,5.072 C 65.166,6.847 62.631,8.623 60.602,10.653 C 58.827,12.679 57.306,15.215 56.039,17.5 C 55.024,20.03 54.517,22.315 54.771,24.596 L 54.771,24.596 z "
   style="fill:#0534b2;fill-rule:evenodd"
   id="path42" />
			</g>
		</g>
		<g
   id="g44">
			<g
   id="g46">
				<path
   d="M 287.543,12.173 C 289.571,10.652 291.854,10.143 294.39,10.143 C 296.671,10.143 298.446,10.653 299.206,12.173 C 300.221,13.694 300.221,15.469 299.206,17.499 C 298.446,19.775 296.923,21.551 294.643,23.071 C 292.615,24.341 290.331,25.101 287.796,25.101 C 285.513,25.101 283.739,24.341 282.725,23.071 C 281.964,21.55 281.964,19.775 282.725,17.499 C 283.739,15.469 285.26,13.693 287.543,12.173 L 287.543,12.173 z M 267.511,24.596 C 267.511,26.622 268.526,28.397 269.794,30.173 C 271.315,31.694 273.09,32.964 275.373,33.979 C 277.654,34.739 280.444,35.245 283.485,35.245 C 286.783,35.245 289.824,34.74 292.868,33.979 C 295.911,32.964 298.701,31.694 301.488,30.173 C 304.533,28.398 306.814,26.622 308.842,24.596 C 310.617,22.57 312.138,20.03 313.406,17.499 C 314.421,14.959 314.929,12.678 314.676,10.652 C 314.421,8.622 313.661,6.591 312.393,5.071 C 310.871,3.296 309.097,2.285 306.814,1.265 C 304.532,0.51 301.742,0 298.446,0 C 295.403,0 292.36,0.51 289.319,1.266 C 286.276,2.286 283.485,3.296 280.697,5.072 C 277.654,6.847 275.373,8.623 273.345,10.653 C 271.315,12.679 269.794,15.215 268.779,17.5 C 267.763,20.03 267.258,22.315 267.511,24.596 L 267.511,24.596 z "
   style="fill:#0534b2;fill-rule:evenodd"
   id="path48" />
			</g>
		</g>
		<g
   id="g50">
			<path
   d="M 472.645,0.76 L 486.589,0.76 L 478.477,18.764 C 477.207,21.3 476.956,23.071 477.717,24.341 C 478.477,25.356 479.997,26.116 482.533,26.116 C 484.818,26.116 487.098,25.356 488.874,24.341 C 490.649,23.071 491.915,21.3 493.181,18.764 L 501.297,0.76 L 515.496,0.76 L 506.874,19.27 C 504.594,24.596 500.792,28.397 495.971,31.188 C 491.155,33.724 485.324,35.244 478.222,35.244 C 471.125,35.244 466.559,33.723 464.024,31.188 C 461.743,28.397 461.743,24.596 464.278,19.27 L 472.645,0.76 L 472.645,0.76 z "
   style="fill:#0534b2;fill-rule:evenodd"
   id="path52" />
		</g>
		<g
   id="g54">
			<g
   id="g56">
				<path
   d="M 640.252,9.888 L 639.998,22.316 L 628.585,22.316 L 640.252,9.888 L 640.252,9.888 z M 616.922,34.484 L 622.498,28.652 L 639.998,28.652 L 639.998,34.484 L 653.436,34.484 L 651.66,0.76 L 637.462,0.76 L 603.229,34.484 L 616.922,34.484 L 616.922,34.484 z "
   style="fill:#0534b2;fill-rule:evenodd"
   id="path58" />
			</g>
		</g>
		<g
   id="g60">
			<g
   id="g62">
				<path
   d="M 143.011,3.041 C 140.728,1.52 136.672,0.76 130.333,0.76 L 111.315,0.76 L 95.342,34.484 L 109.54,34.484 L 116.387,20.285 L 120.191,20.285 C 123.995,20.54 125.262,24.847 125.262,31.693 C 125.262,32.203 125.007,33.468 125.007,34.484 L 138.447,34.484 L 137.94,24.091 C 137.94,22.821 137.433,21.046 136.925,20.285 C 136.672,19.27 135.912,19.019 135.152,18.51 C 137.686,17.75 138.954,16.735 140.476,15.469 C 141.997,13.948 143.264,12.424 144.025,10.653 C 145.547,7.356 145.294,4.816 143.011,3.041 L 143.011,3.041 z M 131.093,11.153 C 130.588,12.423 129.065,13.438 127.797,14.198 C 126.529,14.703 123.486,15.468 120.95,15.468 L 118.161,15.468 L 122.473,6.086 L 125.261,6.086 C 127.542,6.086 129.57,6.846 130.332,7.356 C 131.093,8.112 131.601,9.382 131.093,11.153 L 131.093,11.153 z "
   style="fill:#0534b2;fill-rule:evenodd"
   id="path64" />
			</g>
		</g>
		<g
   id="g66">
			<g
   id="g68">
				<path
   d="M 269.286,3.041 C 267.003,1.52 262.694,0.76 256.352,0.76 L 237.59,0.76 L 221.616,34.484 L 235.815,34.484 L 242.407,20.285 L 246.465,20.285 C 250.016,20.54 251.284,24.847 251.284,31.693 C 251.284,32.203 251.284,33.468 251.284,34.484 L 264.722,34.484 L 264.215,24.091 C 264.215,22.821 263.707,21.046 263.199,20.285 C 262.694,19.27 261.931,19.019 261.171,18.51 C 263.707,17.75 264.974,16.735 266.497,15.469 C 268.018,13.948 269.286,12.424 270.045,10.653 C 271.821,7.356 271.569,4.816 269.286,3.041 L 269.286,3.041 z M 257.115,11.153 C 256.86,12.423 255.34,13.438 253.817,14.198 C 252.551,14.703 249.508,15.468 247.225,15.468 L 244.436,15.468 L 248.747,6.086 L 251.535,6.086 C 253.816,6.086 255.847,6.846 256.606,7.356 C 257.368,8.112 257.621,9.382 257.115,11.153 L 257.115,11.153 z "
   style="fill:#0534b2;fill-rule:evenodd"
   id="path70" />
			</g>
		</g>
		<g
   id="g72">
			<g
   id="g74">
				<path
   d="M 463.768,3.041 C 461.743,1.52 457.432,0.76 451.09,0.76 L 432.33,0.76 L 416.101,34.484 L 430.299,34.484 L 437.147,20.285 C 437.147,20.285 440.948,20.285 441.203,20.285 C 444.754,20.54 446.019,24.847 446.019,31.693 C 446.019,32.203 446.019,33.468 445.768,34.484 L 459.207,34.484 L 458.697,24.091 C 458.697,22.821 458.191,21.046 457.936,20.285 C 457.431,19.27 456.67,19.019 455.91,18.51 C 458.441,17.75 459.712,16.735 461.232,15.469 C 462.757,13.948 464.023,12.424 464.783,10.653 C 466.304,7.356 466.053,4.816 463.768,3.041 L 463.768,3.041 z M 451.85,11.153 C 451.6,12.423 449.825,13.438 448.555,14.198 C 447.289,14.703 444.243,15.468 441.712,15.468 L 439.172,15.468 L 443.483,6.086 L 446.019,6.086 C 448.555,6.086 450.331,6.846 451.09,7.356 C 451.85,8.112 452.359,9.382 451.85,11.153 L 451.85,11.153 z "
   style="fill:#0534b2;fill-rule:evenodd"
   id="path76" />
			</g>
		</g>
		<g
   id="g78">
			<polygon
   points="503.072,34.484 519.047,0.76 532.23,0.76 536.541,13.948 553.025,0.76 566.209,0.76 550.234,34.484 536.797,34.484 545.924,15.469 529.189,28.907 525.133,15.974 516.256,34.484 503.072,34.484 "
   style="fill:#0534b2;fill-rule:evenodd"
   id="polygon80" />
		</g>
		<g
   id="g82">
			<polygon
   points="554.291,34.484 570.015,0.76 583.198,0.76 587.51,13.948 603.988,0.76 617.177,0.76 601.453,34.484 588.015,34.484 596.892,15.469 580.408,28.907 576.097,15.974 567.475,34.484 554.291,34.484 "
   style="fill:#0534b2;fill-rule:evenodd"
   id="polygon84" />
		</g>
		<path
   d="M 72.773,124.246 C 203.106,32.963 595.367,46.151 724.433,45.387"
   style="fill:none;stroke:#0534b2;stroke-width:1.71500003;stroke-miterlimit:2.61310005"
   id="path86" />
	</g>
</svg>